<svg class="svg-icon" style="width: 1em; height: 1em;vertical-align: middle;fill: #42A4FF;overflow: hidden;" viewBox="0 0 1024 1024" version="1.1" xmlns="http://www.w3.org/2000/svg"><path d="M938.688 96 800 96 800 32c0-17.696-14.304-32-32-32s-32 14.304-32 32l0 64-192 0L544 32c0-17.696-14.336-32-32-32s-32 14.304-32 32l0 64L288 96 288 32c0-17.696-14.336-32-32-32S224 14.304 224 32l0 64L85.344 96C38.208 96 0 134.176 0 181.312l0 757.344C0 985.792 38.208 1024 85.344 1024l853.344 0C985.824 1024 1024 985.792 1024 938.656L1024 181.312C1024 134.176 985.824 96 938.688 96zM960 938.656C960 950.432 950.432 960 938.688 960L85.344 960C73.568 960 64 950.432 64 938.656L64 181.312C64 169.568 73.568 160 85.344 160L224 160l0 64c0 17.696 14.336 32 32 32s32-14.304 32-32L288 160l192 0 0 64c0 17.696 14.336 32 32 32s32-14.304 32-32L544 160l192 0 0 64c0 17.696 14.304 32 32 32s32-14.304 32-32L800 160l138.688 0C950.432 160 960 169.568 960 181.312L960 938.656z"  /><path d="M224 384l128 0 0 96-128 0 0-96Z"  /><path d="M224 544l128 0 0 96-128 0 0-96Z"  /><path d="M224 704l128 0 0 96-128 0 0-96Z"  /><path d="M448 704l128 0 0 96-128 0 0-96Z"  /><path d="M448 544l128 0 0 96-128 0 0-96Z"  /><path d="M448 384l128 0 0 96-128 0 0-96Z"  /><path d="M672 704l128 0 0 96-128 0 0-96Z"  /><path d="M672 544l128 0 0 96-128 0 0-96Z"  /><path d="M672 384l128 0 0 96-128 0 0-96Z"  /></svg>