<svg class="svg-icon" style="width: 1em; height: 1em;vertical-align: middle;fill:#42A4FF;overflow: hidden;" viewBox="0 0 1024 1024" version="1.1" xmlns="http://www.w3.org/2000/svg"><path d="M933.248 335.104c-40-10.496-134.048-10.368-271.616-14.016 6.496-30.016 8-57.088 8-105.152C669.632 101.12 585.984 0 512 0c-52.256 0-95.328 42.72-96 95.264-0.704 64.448-20.64 175.744-128 232.192-7.872 4.16-30.4 15.264-33.696 16.704L256 345.6C239.2 331.104 215.904 320 192 320L96 320c-52.928 0-96 43.072-96 96l0 512c0 52.928 43.072 96 96 96l96 0c38.08 0 69.952-23.008 85.376-55.264 0.384 0.128 1.056 0.32 1.504 0.384 2.112 0.576 4.608 1.184 7.648 1.984C287.104 971.264 287.392 971.328 288 971.488c18.432 4.576 53.92 13.056 129.76 30.496C434.016 1005.696 519.904 1024 608.864 1024l174.944 0c53.312 0 91.744-20.512 114.624-61.696 0.32-0.64 7.68-15.008 13.696-34.432 4.512-14.624 6.176-35.328 0.736-56.32 34.368-23.616 45.44-59.328 52.64-82.56 12.064-38.112 8.448-66.752 0.064-87.264 19.328-18.24 35.808-46.048 42.752-88.512 4.32-26.304-0.32-53.376-12.448-75.904 18.112-20.352 26.368-45.952 27.328-69.632l0.384-6.688C1023.808 456.8 1024 454.208 1024 444.992 1024 404.576 996 353.024 933.248 335.104zM224 928c0 17.696-14.304 32-32 32L96 960c-17.696 0-32-14.304-32-32L64 416c0-17.696 14.304-32 32-32l96 0c17.696 0 32 14.304 32 32L224 928zM959.264 465.12C958.624 480.928 952 512 896 512c-48 0-64 0-64 0-8.864 0-16 7.168-16 16S823.136 544 832 544c0 0 14.016 0 62.016 0s54.304 39.808 51.2 59.008C941.248 626.88 930.048 672 876 672 822.016 672 800 672 800 672c-8.864 0-16 7.136-16 16 0 8.8 7.136 16 16 16 0 0 38.016 0 63.008 0 54.016 0 49.248 41.184 41.504 65.76C894.304 802.048 888.064 832 820 832c-23.008 0-52.192 0-52.192 0-8.864 0-16 7.136-16 16 0 8.8 7.136 16 16 16 0 0 22.176 0 50.176 0 35.008 0 36.64 33.12 32.992 44.992-4 12.992-8.736 22.624-8.928 23.072C832.384 949.504 816.8 960 783.808 960l-174.944 0c-87.872 0-175.04-19.936-177.28-20.448-132.928-30.624-139.936-32.992-148.288-35.36 0 0-27.072-4.576-27.072-28.192L256 434.016c0-15.008 9.568-28.576 25.408-33.344 1.984-0.768 4.672-1.6 6.592-2.4 146.176-60.544 190.688-193.28 192-302.272 0.192-15.328 12-32 32-32 33.824 0 93.632 67.904 93.632 151.936C605.632 291.808 602.56 304.928 576 384c320 0 317.76 4.608 345.984 12C956.992 406.016 960 435.008 960 444.992 960 455.968 959.68 454.368 959.264 465.12z"  /><path d="M144 832C117.504 832 96 853.504 96 880S117.504 928 144 928 192 906.496 192 880 170.496 832 144 832zM144 896C135.2 896 128 888.8 128 880S135.2 864 144 864 160 871.2 160 880 152.8 896 144 896z"  /></svg>