<svg class="svg-icon" style="width: 1.0009765625em; height: 1em;vertical-align: middle;fill:#42A4FF;overflow: hidden;" viewBox="0 0 1025 1024" version="1.1" xmlns="http://www.w3.org/2000/svg"><path d="M709.44 275.968c-86.624-17.824-174.56-26.848-261.28-26.848-86.72 0-174.624 9.024-261.28 26.848C175.68 278.272 166.528 286.4 162.912 297.312c-46.144 140.192-46.144 282.336 0 422.528 3.584 10.88 12.736 19.008 23.968 21.312C273.536 758.944 361.44 768 448.16 768c86.688 0 174.656-9.056 261.28-26.88 11.264-2.304 20.384-10.432 24-21.312 46.112-140.192 46.112-282.336 0-422.528C729.824 286.4 720.672 278.272 709.44 275.968zM703.008 709.824c-169.888 34.88-339.808 34.88-509.664 0-44.192-134.176-44.192-268.32 0-402.528 169.888-34.912 339.808-34.912 509.664 0C747.2 441.472 747.2 575.616 703.008 709.824z"  /><path d="M987.328 202.24c-6.176-26.048-28-45.504-54.56-48.704C793.248 136.576 651.744 128 512.16 128 372.608 128 231.104 136.576 91.584 153.504 65.024 156.736 43.232 176.16 37.056 202.24c-48.928 205.536-48.928 413.952 0 619.52 6.176 26.048 27.968 45.504 54.528 48.672 67.232 8.192 134.912 14.176 202.592 18.432C290.528 891.2 288.16 893.568 288.16 896c0 17.696 100.288 32 224 32 123.712 0 224-14.304 224-32 0-2.432-2.368-4.8-6.016-7.136 67.68-4.256 135.36-10.24 202.56-18.432 26.56-3.2 48.384-22.624 54.56-48.672C1036.256 616.192 1036.256 407.776 987.328 202.24zM925.056 806.944c-275.264 33.376-550.528 33.376-825.76 0-46.816-196.64-46.816-393.28 0-589.888 275.264-33.408 550.528-33.408 825.76 0C971.872 413.664 971.872 610.304 925.056 806.944z"  /><path d="M848.192 384c26.496 0 48-21.504 48-48S874.688 288 848.192 288s-48 21.504-48 48S821.696 384 848.192 384zM848.192 320c8.8 0 16 7.2 16 16s-7.2 16-16 16-16-7.2-16-16S839.36 320 848.192 320z"  /><path d="M880.192 704l-96 0c-8.864 0-16 7.136-16 16 0 8.8 7.136 16 16 16l96 0c8.8 0 16-7.2 16-16C896.192 711.136 888.992 704 880.192 704z"  /><path d="M912.192 608l-96 0c-8.864 0-16 7.136-16 16 0 8.8 7.136 16 16 16l96 0c8.8 0 16-7.2 16-16C928.192 615.136 920.992 608 912.192 608z"  /><path d="M912.192 512l-96 0c-8.864 0-16 7.168-16 16s7.136 16 16 16l96 0c8.8 0 16-7.168 16-16S920.992 512 912.192 512z"  /><path d="M432.16 377.728l-146.752 11.488c-8.736 0.992-17.088 8.928-18.56 17.632L257.088 496C256.64 504.8 263.456 512 272.224 512c8.736 0 16.224-7.2 16.576-16l5.344-60.64c1.184-8.704 9.312-16.576 18.048-17.472l119.968-8.224c8.8-0.32 16-7.744 16-16.576S440.992 377.376 432.16 377.728z"  /></svg>